<mxfile host="app.diagrams.net" modified="2021-04-01T15:29:30.960Z" agent="5.0 (Macintosh; Intel Mac OS X 10_15_7) AppleWebKit/605.1.15 (KHTML, like Gecko) Version/13.1.3 Safari/605.1.15" etag="jpeoOLB8LXilX22Pvk06" version="14.5.4" type="github" pages="3">
  <diagram id="HP6hVmwWEq1f-RmOQT3q" name="Page-1">
    <mxGraphModel dx="1773" dy="687" grid="1" gridSize="10" guides="1" tooltips="1" connect="1" arrows="1" fold="1" page="1" pageScale="1" pageWidth="827" pageHeight="1169" math="0" shadow="0">
      <root>
        <mxCell id="0" />
        <mxCell id="1" parent="0" />
        <mxCell id="GfYKKHYvZAQNPGDV3tTX-22" style="edgeStyle=orthogonalEdgeStyle;curved=1;rounded=0;orthogonalLoop=1;jettySize=auto;html=1;exitX=0.5;exitY=1;exitDx=0;exitDy=0;entryX=0.5;entryY=0;entryDx=0;entryDy=0;strokeColor=#000000;" parent="1" source="GfYKKHYvZAQNPGDV3tTX-1" target="GfYKKHYvZAQNPGDV3tTX-19" edge="1">
          <mxGeometry relative="1" as="geometry" />
        </mxCell>
        <mxCell id="GfYKKHYvZAQNPGDV3tTX-1" value="文件系统" style="rounded=0;whiteSpace=wrap;html=1;" parent="1" vertex="1">
          <mxGeometry x="120" y="270" width="120" height="60" as="geometry" />
        </mxCell>
        <mxCell id="GfYKKHYvZAQNPGDV3tTX-23" style="edgeStyle=orthogonalEdgeStyle;curved=1;rounded=0;orthogonalLoop=1;jettySize=auto;html=1;entryX=0.45;entryY=-0.033;entryDx=0;entryDy=0;entryPerimeter=0;strokeColor=#000000;" parent="1" source="GfYKKHYvZAQNPGDV3tTX-2" target="GfYKKHYvZAQNPGDV3tTX-20" edge="1">
          <mxGeometry relative="1" as="geometry" />
        </mxCell>
        <mxCell id="GfYKKHYvZAQNPGDV3tTX-2" value="文件系统" style="rounded=0;whiteSpace=wrap;html=1;" parent="1" vertex="1">
          <mxGeometry x="294" y="270" width="120" height="60" as="geometry" />
        </mxCell>
        <mxCell id="GfYKKHYvZAQNPGDV3tTX-24" style="edgeStyle=orthogonalEdgeStyle;curved=1;rounded=0;orthogonalLoop=1;jettySize=auto;html=1;entryX=0.5;entryY=0;entryDx=0;entryDy=0;strokeColor=#000000;" parent="1" source="GfYKKHYvZAQNPGDV3tTX-3" target="GfYKKHYvZAQNPGDV3tTX-21" edge="1">
          <mxGeometry relative="1" as="geometry" />
        </mxCell>
        <mxCell id="GfYKKHYvZAQNPGDV3tTX-3" value="文件系统" style="rounded=0;whiteSpace=wrap;html=1;" parent="1" vertex="1">
          <mxGeometry x="480" y="270" width="120" height="60" as="geometry" />
        </mxCell>
        <mxCell id="GfYKKHYvZAQNPGDV3tTX-16" style="edgeStyle=orthogonalEdgeStyle;rounded=0;orthogonalLoop=1;jettySize=auto;html=1;exitX=0.25;exitY=1;exitDx=0;exitDy=0;entryX=0.567;entryY=-0.033;entryDx=0;entryDy=0;entryPerimeter=0;strokeColor=#000000;curved=1;" parent="1" source="GfYKKHYvZAQNPGDV3tTX-4" target="GfYKKHYvZAQNPGDV3tTX-1" edge="1">
          <mxGeometry relative="1" as="geometry" />
        </mxCell>
        <mxCell id="GfYKKHYvZAQNPGDV3tTX-17" style="edgeStyle=orthogonalEdgeStyle;rounded=0;orthogonalLoop=1;jettySize=auto;html=1;entryX=0.5;entryY=0;entryDx=0;entryDy=0;strokeColor=#000000;curved=1;" parent="1" source="GfYKKHYvZAQNPGDV3tTX-4" target="GfYKKHYvZAQNPGDV3tTX-2" edge="1">
          <mxGeometry relative="1" as="geometry" />
        </mxCell>
        <mxCell id="GfYKKHYvZAQNPGDV3tTX-18" style="edgeStyle=orthogonalEdgeStyle;rounded=0;orthogonalLoop=1;jettySize=auto;html=1;exitX=0.75;exitY=1;exitDx=0;exitDy=0;entryX=0.5;entryY=0;entryDx=0;entryDy=0;strokeColor=#000000;curved=1;" parent="1" source="GfYKKHYvZAQNPGDV3tTX-4" target="GfYKKHYvZAQNPGDV3tTX-3" edge="1">
          <mxGeometry relative="1" as="geometry" />
        </mxCell>
        <mxCell id="GfYKKHYvZAQNPGDV3tTX-4" value="分布式文件系统（管理所有的存放设备）" style="rounded=0;whiteSpace=wrap;html=1;" parent="1" vertex="1">
          <mxGeometry x="170" y="170" width="360" height="40" as="geometry" />
        </mxCell>
        <mxCell id="GfYKKHYvZAQNPGDV3tTX-7" value="上传文件" style="edgeStyle=orthogonalEdgeStyle;rounded=0;orthogonalLoop=1;jettySize=auto;html=1;" parent="1" source="GfYKKHYvZAQNPGDV3tTX-5" target="GfYKKHYvZAQNPGDV3tTX-6" edge="1">
          <mxGeometry relative="1" as="geometry" />
        </mxCell>
        <mxCell id="GfYKKHYvZAQNPGDV3tTX-5" value="用户" style="ellipse;whiteSpace=wrap;html=1;" parent="1" vertex="1">
          <mxGeometry x="-420" y="110" width="120" height="80" as="geometry" />
        </mxCell>
        <mxCell id="GfYKKHYvZAQNPGDV3tTX-6" value="文件系统" style="rounded=0;whiteSpace=wrap;html=1;" parent="1" vertex="1">
          <mxGeometry x="-420" y="310" width="120" height="60" as="geometry" />
        </mxCell>
        <mxCell id="GfYKKHYvZAQNPGDV3tTX-8" value="&lt;div align=&quot;left&quot;&gt;它可以是一个Tomcat或一个单独的计算机之用于存放文件&lt;br&gt;&lt;/div&gt;" style="shape=note;whiteSpace=wrap;html=1;backgroundOutline=1;darkOpacity=0.05;" parent="1" vertex="1">
          <mxGeometry x="-240" y="305" width="180" height="70" as="geometry" />
        </mxCell>
        <mxCell id="GfYKKHYvZAQNPGDV3tTX-12" value="传统方式存放" style="text;html=1;strokeColor=none;fillColor=none;align=center;verticalAlign=middle;whiteSpace=wrap;rounded=0;" parent="1" vertex="1">
          <mxGeometry x="-440" y="70" width="150" height="20" as="geometry" />
        </mxCell>
        <mxCell id="GfYKKHYvZAQNPGDV3tTX-14" value="上传文件" style="edgeStyle=orthogonalEdgeStyle;rounded=0;orthogonalLoop=1;jettySize=auto;html=1;entryX=0.472;entryY=0;entryDx=0;entryDy=0;entryPerimeter=0;strokeColor=#000000;" parent="1" source="GfYKKHYvZAQNPGDV3tTX-13" target="GfYKKHYvZAQNPGDV3tTX-4" edge="1">
          <mxGeometry relative="1" as="geometry" />
        </mxCell>
        <mxCell id="GfYKKHYvZAQNPGDV3tTX-13" value="用户" style="ellipse;whiteSpace=wrap;html=1;" parent="1" vertex="1">
          <mxGeometry x="294" width="90" height="50" as="geometry" />
        </mxCell>
        <mxCell id="GfYKKHYvZAQNPGDV3tTX-15" value="&lt;div align=&quot;left&quot;&gt;需要根据文件的大小，以及其他一些信息&lt;/div&gt;&lt;div align=&quot;left&quot;&gt;决定这个文件保存到某一台计算机中&lt;br&gt;&lt;/div&gt;" style="shape=note;whiteSpace=wrap;html=1;backgroundOutline=1;darkOpacity=0.05;" parent="1" vertex="1">
          <mxGeometry x="600" y="140" width="250" height="90" as="geometry" />
        </mxCell>
        <mxCell id="GfYKKHYvZAQNPGDV3tTX-19" value="&lt;div&gt;文件系统&lt;/div&gt;&lt;div&gt;（数据备份）&lt;/div&gt;" style="rounded=0;whiteSpace=wrap;html=1;" parent="1" vertex="1">
          <mxGeometry x="120" y="370" width="120" height="60" as="geometry" />
        </mxCell>
        <mxCell id="GfYKKHYvZAQNPGDV3tTX-20" value="&lt;div&gt;文件系统&lt;/div&gt;&lt;div&gt;（数据备份）&lt;/div&gt;" style="rounded=0;whiteSpace=wrap;html=1;" parent="1" vertex="1">
          <mxGeometry x="300" y="370" width="120" height="60" as="geometry" />
        </mxCell>
        <mxCell id="GfYKKHYvZAQNPGDV3tTX-21" value="&lt;div&gt;文件系统&lt;/div&gt;&lt;div&gt;（数据备份）&lt;/div&gt;" style="rounded=0;whiteSpace=wrap;html=1;" parent="1" vertex="1">
          <mxGeometry x="480" y="370" width="120" height="60" as="geometry" />
        </mxCell>
        <mxCell id="GfYKKHYvZAQNPGDV3tTX-25" value="分布式文件存储" style="text;html=1;strokeColor=none;fillColor=none;align=center;verticalAlign=middle;whiteSpace=wrap;rounded=0;" parent="1" vertex="1">
          <mxGeometry x="150" y="20" width="90" height="20" as="geometry" />
        </mxCell>
      </root>
    </mxGraphModel>
  </diagram>
  <diagram id="nsjIrb23px6FX47FsbON" name="技术架构">
    <mxGraphModel dx="946" dy="687" grid="1" gridSize="10" guides="1" tooltips="1" connect="1" arrows="1" fold="1" page="1" pageScale="1" pageWidth="827" pageHeight="1169" math="0" shadow="0">
      <root>
        <mxCell id="rMoZErdIXqg7e_pNAfJ4-0" />
        <mxCell id="rMoZErdIXqg7e_pNAfJ4-1" parent="rMoZErdIXqg7e_pNAfJ4-0" />
        <mxCell id="rMoZErdIXqg7e_pNAfJ4-2" value="sentinel" style="text;html=1;strokeColor=none;fillColor=none;align=center;verticalAlign=middle;whiteSpace=wrap;rounded=0;" vertex="1" parent="rMoZErdIXqg7e_pNAfJ4-1">
          <mxGeometry x="20" y="10" width="40" height="20" as="geometry" />
        </mxCell>
        <mxCell id="rMoZErdIXqg7e_pNAfJ4-3" value="组件适配" style="text;html=1;strokeColor=none;fillColor=none;align=center;verticalAlign=middle;whiteSpace=wrap;rounded=0;" vertex="1" parent="rMoZErdIXqg7e_pNAfJ4-1">
          <mxGeometry x="20" y="80" width="50" height="20" as="geometry" />
        </mxCell>
        <mxCell id="rMoZErdIXqg7e_pNAfJ4-4" value="" style="endArrow=none;html=1;exitX=1;exitY=0.5;exitDx=0;exitDy=0;" edge="1" parent="rMoZErdIXqg7e_pNAfJ4-1" source="rMoZErdIXqg7e_pNAfJ4-3">
          <mxGeometry width="50" height="50" relative="1" as="geometry">
            <mxPoint x="80" y="120" as="sourcePoint" />
            <mxPoint x="120" y="90" as="targetPoint" />
          </mxGeometry>
        </mxCell>
        <mxCell id="rMoZErdIXqg7e_pNAfJ4-5" value="dubbo适配" style="text;html=1;strokeColor=none;fillColor=none;align=center;verticalAlign=middle;whiteSpace=wrap;rounded=0;" vertex="1" parent="rMoZErdIXqg7e_pNAfJ4-1">
          <mxGeometry x="120" y="81" width="60" height="20" as="geometry" />
        </mxCell>
        <mxCell id="rMoZErdIXqg7e_pNAfJ4-12" value="" style="edgeStyle=orthogonalEdgeStyle;rounded=0;orthogonalLoop=1;jettySize=auto;html=1;" edge="1" parent="rMoZErdIXqg7e_pNAfJ4-1" source="rMoZErdIXqg7e_pNAfJ4-6" target="rMoZErdIXqg7e_pNAfJ4-11">
          <mxGeometry relative="1" as="geometry" />
        </mxCell>
        <mxCell id="rMoZErdIXqg7e_pNAfJ4-6" value="&amp;nbsp;consumer" style="rounded=0;whiteSpace=wrap;html=1;" vertex="1" parent="rMoZErdIXqg7e_pNAfJ4-1">
          <mxGeometry x="200" y="43" width="60" height="29" as="geometry" />
        </mxCell>
        <mxCell id="rMoZErdIXqg7e_pNAfJ4-14" style="edgeStyle=orthogonalEdgeStyle;rounded=0;orthogonalLoop=1;jettySize=auto;html=1;exitX=1;exitY=0.5;exitDx=0;exitDy=0;" edge="1" parent="rMoZErdIXqg7e_pNAfJ4-1" source="rMoZErdIXqg7e_pNAfJ4-7" target="rMoZErdIXqg7e_pNAfJ4-13">
          <mxGeometry relative="1" as="geometry" />
        </mxCell>
        <mxCell id="rMoZErdIXqg7e_pNAfJ4-7" value="provider" style="rounded=0;whiteSpace=wrap;html=1;" vertex="1" parent="rMoZErdIXqg7e_pNAfJ4-1">
          <mxGeometry x="200" y="94" width="60" height="29" as="geometry" />
        </mxCell>
        <mxCell id="rMoZErdIXqg7e_pNAfJ4-11" value="Filter1" style="whiteSpace=wrap;html=1;rounded=0;" vertex="1" parent="rMoZErdIXqg7e_pNAfJ4-1">
          <mxGeometry x="310" y="43" width="50" height="30" as="geometry" />
        </mxCell>
        <mxCell id="rMoZErdIXqg7e_pNAfJ4-13" value="Filter2" style="whiteSpace=wrap;html=1;rounded=0;" vertex="1" parent="rMoZErdIXqg7e_pNAfJ4-1">
          <mxGeometry x="310" y="94" width="50" height="30" as="geometry" />
        </mxCell>
      </root>
    </mxGraphModel>
  </diagram>
  <diagram id="itPMxmZSe2DDddXpuNiP" name="毕设-租房">
    <mxGraphModel dx="946" dy="687" grid="1" gridSize="10" guides="1" tooltips="1" connect="1" arrows="1" fold="1" page="1" pageScale="1" pageWidth="827" pageHeight="1169" math="0" shadow="0">
      <root>
        <mxCell id="iaEfrIugVmjb8q8iQtKV-0" />
        <mxCell id="iaEfrIugVmjb8q8iQtKV-1" parent="iaEfrIugVmjb8q8iQtKV-0" />
      </root>
    </mxGraphModel>
  </diagram>
</mxfile>
